<?xml version="1.0" encoding="UTF-8" standalone="no"?>
<svg
   xmlns:dc="http://purl.org/dc/elements/1.1/"
   xmlns:cc="http://creativecommons.org/ns#"
   xmlns:rdf="http://www.w3.org/1999/02/22-rdf-syntax-ns#"
   xmlns:svg="http://www.w3.org/2000/svg"
   xmlns="http://www.w3.org/2000/svg"
   xmlns:sodipodi="http://sodipodi.sourceforge.net/DTD/sodipodi-0.dtd"
   xmlns:inkscape="http://www.inkscape.org/namespaces/inkscape"
   sodipodi:docname="pidgr-logo-white.svg"
   inkscape:version="1.0beta1 (fe3e306, 2019-09-17)"
   id="svg1598"
   version="1.1"
   viewBox="0 0 83.608582 76.416138"
   height="76.416138mm"
   width="83.608582mm">
  <defs
     id="defs1592" />
  <sodipodi:namedview
     inkscape:window-maximized="0"
     inkscape:window-y="201"
     inkscape:window-x="170"
     inkscape:window-height="1030"
     inkscape:window-width="1561"
     fit-margin-bottom="0"
     fit-margin-right="0"
     fit-margin-left="0"
     fit-margin-top="0"
     showgrid="false"
     inkscape:document-rotation="0"
     inkscape:current-layer="layer1"
     inkscape:document-units="mm"
     inkscape:cy="250.12273"
     inkscape:cx="335.14334"
     inkscape:zoom="0.35"
     inkscape:pageshadow="2"
     inkscape:pageopacity="0.0"
     borderopacity="1.0"
     bordercolor="#666666"
     pagecolor="#ffffff"
     id="base" />
  <metadata
     id="metadata1595">
    <rdf:RDF>
      <cc:Work
         rdf:about="">
        <dc:format>image/svg+xml</dc:format>
        <dc:type
           rdf:resource="http://purl.org/dc/dcmitype/StillImage" />
        <dc:title></dc:title>
      </cc:Work>
    </rdf:RDF>
  </metadata>
  <g
     transform="translate(-17.159991,-81.98836)"
     id="layer1"
     inkscape:groupmode="layer"
     inkscape:label="Layer 1">
    <path
       inkscape:export-ydpi="96"
       inkscape:export-xdpi="96"
       inkscape:connector-curvature="0"
       id="path1005-8-2"
       d="m 78.365553,140.56545 c 0.89657,-0.41089 2.995592,-1.52735 4.664462,-2.48101 1.668899,-0.95368 4.44483,-2.48418 6.1688,-3.40112 2.31172,-1.22956 3.615028,-2.12361 4.965509,-3.40621 1.95371,-1.8556 4.03665,-3.21587 5.562891,-3.63287 l 0.937565,-0.25618 c 0,0 0.67642,-0.16965 -1.424276,-1.38051 -0.85035,-0.30161 -1.80017,-0.86076 -2.43205,-1.46289 -1.594128,-1.5191 -5.06957,-1.99104 -7.823938,-1.5945 -0.60062,0.0865 -1.12921,0.0461 -1.174642,-0.0896 -0.0454,-0.13582 0.470432,-0.89665 1.146389,-1.69071 1.671442,-1.96354 2.182982,-3.15693 2.822321,-6.58423 1.18041,-6.32781 1.39305,-12.10881 0.632521,-17.19778 -0.769231,-5.14734 -3.22236,-11.61373 -5.42335,-14.2959 -1.163222,-1.41759 -1.651891,-1.46101 -2.014611,-0.17908 -0.222031,0.78458 -0.290899,0.83388 -0.73275,0.52452 -0.576689,-0.40377 -1.34537,-0.22141 -1.65226,0.392 -0.120369,0.24065 -0.20941,1.18412 -0.197829,2.09659 0.01169,0.91248 -0.120502,1.87492 -0.29351,2.13877 -0.173011,0.26385 -0.402381,1.00989 -0.509701,1.65784 -0.10736,0.64794 -0.397209,1.38106 -0.644179,1.62913 -0.246951,0.24807 -0.598342,1.1264 -0.780859,1.95185 -0.182481,0.82542 -0.462431,1.64878 -0.62212,1.82966 -0.597321,0.67661 -1.186792,2.2268 -1.192321,3.13556 -0.003,0.51704 -0.328851,1.39077 -0.723742,1.94159 -0.39493,0.55085 -0.789138,1.44871 -0.876048,1.99526 -0.087,0.54654 -0.51534,1.70338 -0.952122,2.57077 -0.475229,0.94377 -0.824079,2.25736 -0.86868,3.27114 -0.0411,0.93174 -0.207568,1.89693 -0.370128,2.14485 -0.16256,0.24792 -0.24832,0.59205 -0.190561,0.76471 0.0578,0.17266 -0.229809,0.92931 -0.63899,1.68141 -0.497171,0.91378 -0.691769,1.71227 -0.586531,2.40674 0.126601,0.8355 -0.199078,1.70764 -1.660718,4.44765 l -1.818211,3.40836 -1.70715,-0.0849 c -0.938951,-0.0467 -4.611349,-0.14365 -8.160891,-0.21561 -6.346798,-0.12866 -9.27323,-0.26907 -11.788158,-0.56556 -0.69908,-0.0824 -2.03195,-0.22061 -2.961892,-0.30708 -0.929938,-0.0865 -2.730789,-0.33731 -4.001889,-0.55738 -1.27108,-0.2201 -5.55605,-0.86204 -9.52217,-1.42655 -3.96611,-0.56453 -7.8981,-1.18692 -8.73773,-1.3831 -0.83963,-0.19618 -1.606111,-0.33181 -1.703311,-0.3014 -0.52329,0.16375 0.29,0.94108 1.844241,1.76266 2.25301,1.19094 4.23738,2.4023 4.31487,2.63394 0.0844,0.25244 1.90967,1.0501 2.19712,0.96015 0.12978,-0.0407 0.29358,0.0983 0.36397,0.30888 0.0703,0.21048 0.62286,0.52759 1.2277,0.70469 0.60486,0.17711 1.75334,0.6335 2.55218,1.01421 0.79886,0.38072 1.9402,0.91845 2.53633,1.19497 0.59611,0.27649 2.504,0.74464 4.23972,1.04032 1.73571,0.29565 3.19146,0.64404 3.23498,0.77416 0.103141,0.30856 1.934139,0.60326 3.064709,0.49326 0.585621,-0.0571 0.92497,0.0708 0.999101,0.37607 0.0618,0.25428 0.230161,0.42547 0.374179,0.38041 0.144061,-0.0451 0.227812,0.0525 0.186161,0.21671 -0.11068,0.43623 2.577989,3.36232 4.845389,5.27326 0.90112,0.75946 1.353571,1.32816 1.292331,1.62441 -0.13544,0.65525 -5.238319,4.44186 -9.80439,7.27537 -3.69381,2.29223 -10.38297,5.50008 -11.55768,5.54259 -0.25913,0.009 -0.93558,0.27113 -1.50323,0.58174 -0.74153,0.4057 0.13938,0.2133 3.12904,-0.68344 2.57243,-0.77157 3.97904,-1.09561 3.68422,-0.84865 -1.36213,1.14106 -7.12249,3.95695 -12.6732,6.19518 -1.22892,0.49554 -2.15993,0.9378 -2.06892,0.98279 0.1867,0.0923 6.66102,-2.4354 10.30321,-4.02257 1.31873,-0.57465 3.00338,-1.28727 3.74369,-1.58357 0.74031,-0.2963 2.34917,-1.03014 3.57529,-1.63073 4.673431,-2.2892 11.07371,-3.57468 24.0259,-4.82567 5.295731,-0.51147 9.438611,-1.53 13.159971,-3.23544 z m -59.523639,17.24973 c -0.43842,0.0696 -1.12232,0.28352 -1.51976,0.47554 -0.39745,0.19201 -0.0388,0.13514 0.79712,-0.12647 0.83585,-0.26155 1.16106,-0.41864 0.72264,-0.34911 z m 3.55207,-1.47195 c -0.0464,-0.13873 -0.52289,-0.0368 -1.06821,0.22848 -1.36316,0.66312 -1.362921,0.80898 3.17e-4,0.38232 0.63323,-0.19814 1.11363,-0.47298 1.06754,-0.61074 z m 3.7566,-4.0547 c -0.28844,0.0163 -0.72364,0.15216 -0.96712,0.30261 -0.24347,0.15045 -0.008,0.13735 0.52442,-0.029 0.53193,-0.16643 0.73112,-0.28957 0.4427,-0.27353 z"
       style="opacity:1;fill:#ffffff;fill-opacity:1;stroke-width:0.285623;stop-opacity:1"
       sodipodi:nodetypes="cccccccscscccccccccccccccccccsccccsscscssscsssccccsccsccccccccccccccccscscscsssccsccc" />
  </g>
</svg>
